DataType=double
version=3
OpenSimVersion=4.5-2023-11-26-efcdfd3eb
endheader
time	EMG01_right_gast_med	EMG02_right_glut_max	EMG03_left_gast_med	EMG04_left_glut_max	EMG05_right_glut_med	EMG06_right_bic_fem	EMG07_right_rect_fem	EMG08_right_vast_lat	EMG09_right_vast_med	EMG10_right_tens_fasc_lat	EMG11_left_glut_med	EMG12_left_bic_fem	EMG13_left_rect_fem	EMG14_left_vast_lat	EMG15_left_vast_med	EMG16_left_tens_fasc_lat
0.64	10.95548063308085	14.48154121393831	115.9725098561966	9.096980975982449	41.92912759751638	59.27053384890492	4.271799742426494	7.409047007168036	22.7981638671798	10.60166686692838	7.261837319019481	4.510280516962508	6.294100180960178	1.688121617094596	5.006451670981503	41.96482291409148
0.65	11.63273595338618	14.44788789737823	116.2048152774084	9.173847506103842	46.75428083155631	61.15888337225869	4.597142893140031	7.950741913996923	25.25078309388306	11.18037282122601	7.199170989892601	4.683291429911798	6.597313918838635	1.976106919390698	4.997347264392292	38.48420938514817
0.66	12.19134280374262	14.55338720026043	115.8749712086627	9.430969003104844	51.96737529465312	62.84995569958006	4.926474315077175	8.533042211877465	27.82239448015715	11.87657598829006	7.127273720086545	4.844978779436701	6.887168520565904	2.303369479450603	5.20631771764255	35.27232785296043
0.67	12.62747794906269	14.79494598972686	114.9799844877045	9.875085158574915	57.48965676744677	64.32851486697619	5.257049152085107	9.151646814680722	30.49061359607224	12.68169254602416	7.045751502641028	4.992785093349013	7.159495423116939	2.663406130659038	5.62277691828585	32.35498338104297
0.68	12.93928812520448	15.16788972362657	113.5247652929976	10.51158772987471	63.23960218076157	65.58119956570056	5.586132541762368	9.801659091749601	33.23132959194464	13.58617556254404	6.954441391125021	5.124435494654631	7.410440816077432	3.049840509152692	6.23447220267099	29.75475558068286
0.6899999999999999	13.12693948248797	15.66601562419176	111.5220331730305	11.34430576777206	69.13392594487374	66.5966409458532	5.911004317015949	10.47761827042681	36.01897655003884	14.57957741442295	6.853381453206271	5.237941850315242	7.63649705334387	3.456458744778254	7.027569496380779	27.49065120059131
0.7	13.19266429746594	16.28166151809018	108.9920453942465	12.37530383205626	75.0886104710813	67.36557258627641	6.228965876900931	11.17353986712717	38.82683359795642	15.65062379447625	6.742781111167916	5.331603346850663	7.834528798519058	3.877238985699476	7.986745454747789	25.57780044199425
0.71	13.14080370685504	17.00578994842764	105.9621570659187	13.60469816460512	81.01995043758711	67.88093495416584	6.537349681839228	11.88296564757399	41.62735103133802	16.7872996198059	6.622992708447157	5.404004132773229	8.001794050229478	4.3063754765784	9.09528851973011	24.0272033114353
0.72	12.97784468817484	17.82808705069787	102.466227433371	15.03049563277664	86.84559968952105	68.13797440929714	6.83353169136803	12.59902345127533	44.3924989373176	17.97694688281203	6.494485015170502	5.454008852603924	8.135960225963675	4.738298014044513	10.33521092578673	22.84553144262808
0.73	12.71244898892346	18.73707552203094	98.54389292220011	16.64845999050485	92.48560869091342	68.13433468664755	7.114946844165746	13.31449693862578	47.09413355068637	19.20637412708966	6.357819297063149	5.480757005256309	8.235115569952587	5.167687734511595	11.68737360346035	22.03498992963328
0.74	12.35547115480785	19.72024080375353	94.2397327974417	18.45200964962961	97.86343947580863	67.87013729387213	7.3791074492203	14.02190500850471	49.70437503189266	20.4619767482118	6.213628499721301	5.483657027211005	8.29777624172365	5.589490332454947	13.13162567855364	21.59324285584254
0.75	11.91996222093454	20.76416935991913	89.6023561933183	20.43215081002026	102.9069444644767	67.34804637585445	7.623624175274463	14.71359031324047	52.19598886358529	21.72986680317992	6.062600023197196	5.462380862885261	8.322889490501488	5.998927890499666	14.64695991028495	21.513405365637
0.76	11.42115505705474	21.85469769886468	84.68343985997514	22.57744950573712	107.5492951653105	66.57331285455243	7.846229220807407	15.38181592711661	54.54276198956438	22.99601056940107	5.905462461862482	5.416859622170701	8.309833349776598	6.39151045594733	16.21168501258621	21.78410429285224
0.77	10.87642689442365	22.97707061888557	79.53674484809294	24.87404580318618	111.7298459286731	65.55379168480631	8.044801205596356	16.018868795389	56.71986442283835	24.24637176176783	5.74297654858663	5.347280791620728	8.258413339346843	6.7630483218182	17.80361538026112	22.3896085157235
0.78	10.3052343051428	24.11610713592712	74.21713810473888	27.30571293833784	115.3949159533982	64.29992506717049	8.217391312895391	16.61716818411215	58.70418740730687	25.46705811686491	5.575930375055409	5.254087359815962	8.168856725561168	7.109665729736403	19.40027826083316	23.31002932597189
0.79	9.729015894289537	25.25637261713182	68.77964224819286	29.85396360104036	118.4984701878925	62.82468408845509	8.362250215711743	17.16937709823786	60.4746504490164	26.64446902202669	5.405138780734562	5.1379791062492	8.041804907574907	7.427816480549549	20.97913781811581	24.52159015555351
0.8	9.171058213968582	26.38235559654706	63.27853407026104	32.49820490572184	121.0026784713843	61.1434622114374	8.477855352865632	17.66851461841244	62.01247168339076	27.76544196885624	5.231446637273189	4.999916160648648	7.878304445977197	7.714301762314088	22.51783482802053	25.99696399091837
